<svg xmlns="http://www.w3.org/2000/svg" viewBox="0 0 1573.05 404.21"><defs><style>.cls-1{fill:#fff;}.cls-2{fill:#e52949;}</style></defs><g id="Layer_2" data-name="Layer 2"><g id="Layer_1-2" data-name="Layer 1"><path class="cls-1" d="M726.22,84.48a4.77,4.77,0,0,0-4.7,3.93Q718,108.2,714.1,128.76q-4.32,22.63-8.94,44.46t-9.38,42.22Q691,235.83,686.2,253s-21.84-67.94-45.53-155.21a4.8,4.8,0,0,0-4.62-3.55H610.83a4.79,4.79,0,0,0-4.61,3.55C582.53,185.08,560.68,253,560.68,253q-4.81-17.21-9.57-37.58t-9.39-42.22q-4.62-21.83-8.94-44.46-3.88-20.56-7.42-40.35a4.76,4.76,0,0,0-4.7-3.93H487.42a4.8,4.8,0,0,0-4.7,5.69Q493.42,147,506.29,199.66,519.37,253.17,535.87,302a4.8,4.8,0,0,0,4.54,3.25h33.85a4.79,4.79,0,0,0,4.5-3.17c9.46-26.37,37.16-112.74,44.68-137.34,7.53,24.6,35.23,111,44.69,137.34a4.78,4.78,0,0,0,4.5,3.17h33.84A4.78,4.78,0,0,0,711,302q16.53-48.87,29.58-102.37Q753.46,147,764.17,90.17a4.81,4.81,0,0,0-4.71-5.69Z"/><path class="cls-1" d="M765.41,222.76q0-22,6.53-38.55t17.36-27.56a71.87,71.87,0,0,1,24.86-16.57,77,77,0,0,1,28.67-5.57q34.41,0,53.69,21.34t19.27,63.73q0,3.18-.15,7.16c0,.94-.09,1.85-.14,2.72a4.76,4.76,0,0,1-4.77,4.45H805.23Q806.82,254,819.41,265t36.48,11a119.86,119.86,0,0,0,25.65-2.55c5-1.1,9.37-2.25,13-3.44a4.77,4.77,0,0,1,6.23,3.77l3.58,22.13a4.78,4.78,0,0,1-3,5.23q-2.26.87-5.18,1.78a124.6,124.6,0,0,1-12.75,3.19c-4.77,1-9.93,1.75-15.45,2.39a146.57,146.57,0,0,1-16.89.95q-22,0-38.23-6.53a71.07,71.07,0,0,1-26.76-18.16,74.22,74.22,0,0,1-15.61-27.4A111.49,111.49,0,0,1,765.41,222.76Zm111.83-17.2A50.6,50.6,0,0,0,875,190.42,36.44,36.44,0,0,0,868.48,178,30.84,30.84,0,0,0,858,169.71a33.62,33.62,0,0,0-14.81-3A34.48,34.48,0,0,0,827.54,170a35.48,35.48,0,0,0-11.31,8.76,40,40,0,0,0-7.17,12.43,66.76,66.76,0,0,0-3.51,14.34Z"/><path class="cls-1" d="M1090.26,222.12q0,20.08-5.89,36.17a78.21,78.21,0,0,1-16.89,27.56,72.68,72.68,0,0,1-26.6,17.52q-15.62,6-35.37,6.05A223.93,223.93,0,0,1,969,306.56a247.91,247.91,0,0,1-25.31-5.35,4.79,4.79,0,0,1-3.52-4.62V75.49a4.78,4.78,0,0,1,4-4.72l29-4.79a4.78,4.78,0,0,1,5.56,4.71v73.69A91.43,91.43,0,0,1,995.16,138a75.78,75.78,0,0,1,21.5-2.87q17.52,0,31.39,6.22a61.56,61.56,0,0,1,23.1,17.68,81.94,81.94,0,0,1,14.18,27.56A120.79,120.79,0,0,1,1090.26,222.12Zm-39.51-.63q0-24.54-9.71-38.87t-30.75-14.34a59.13,59.13,0,0,0-31.54,9.24v95.9a102.13,102.13,0,0,0,10.67,1.75,130.89,130.89,0,0,0,15.77.8q21.34,0,33.46-14.5T1050.75,221.49Z"/><path class="cls-2" d="M369.2,209.68,276.1,335.35l-36.68-49.51-26.61-35.92L147.2,161.36a101.08,101.08,0,0,1-19.73-59.75V42.77H298.14v58.84a100.94,100.94,0,0,1-19.72,59.75l-48,64.75a8.07,8.07,0,0,0,0,9.58L250,262.05a4.4,4.4,0,0,0,7.08,0l55.73-75.23a144.08,144.08,0,0,0,28.13-85.21V5a5,5,0,0,0-5-5H89.73a5,5,0,0,0-5,5v96.58a144.08,144.08,0,0,0,28.13,85.21l73.36,99-36.66,49.51L56.42,209.67a25.18,25.18,0,0,0-20.2-10.17H4.41a4.41,4.41,0,0,0-3.54,7L146,402.43a4.39,4.39,0,0,0,7.07,0l45.65-61.64,7-9.49,7.05-9.53,59.76,80.66a4.39,4.39,0,0,0,7.07,0l145.1-195.9a4.41,4.41,0,0,0-3.54-7H389.4A25.14,25.14,0,0,0,369.2,209.68Z"/><path class="cls-1" d="M1169.24,275.34q21.66,0,31.55-7.33t9.87-20.71a26.69,26.69,0,0,0-3.35-13.71,35,35,0,0,0-9.55-10.35,80.22,80.22,0,0,0-15.14-8.61q-8.92-4-20.39-7.8-11.48-4.14-22.15-9.09a74.41,74.41,0,0,1-18.8-12.26A56.47,56.47,0,0,1,1108.21,168q-4.93-10.2-4.94-24.54,0-29.94,20.72-47t56.4-17q20.71,0,36.8,4.63a127.91,127.91,0,0,1,21.51,8,4.77,4.77,0,0,1,2.33,6l-9,23.59a4.73,4.73,0,0,1-6.42,2.63,97.11,97.11,0,0,0-19.23-6.89,110.83,110.83,0,0,0-26.61-3.18q-16.24,0-25.33,6.69t-9.08,18.8a24.81,24.81,0,0,0,3,12.59,31.18,31.18,0,0,0,8.61,9.4,75.7,75.7,0,0,0,13.06,7.65q7.48,3.51,16.42,6.69,15.6,5.73,27.88,11.63a78.83,78.83,0,0,1,20.71,14A55,55,0,0,1,1248,220.69q4.46,11,4.46,26.61,0,30-21.19,46.36t-62,16.41a165.16,165.16,0,0,1-25-1.75,162.06,162.06,0,0,1-20.07-4.3,135.61,135.61,0,0,1-15.14-5.26c-2.41-1-4.55-2-6.41-2.92a4.77,4.77,0,0,1-2.39-5.9l8.57-23.86a4.75,4.75,0,0,1,6.53-2.68,161.3,161.3,0,0,0,18.56,7.16Q1148.51,275.35,1169.24,275.34Z"/><path class="cls-1" d="M1273,222.76q0-22,6.53-38.56t17.37-27.56a71.83,71.83,0,0,1,24.85-16.57,77,77,0,0,1,28.68-5.58q34.42,0,53.7,21.35t19.27,63.73q0,3.19-.15,7.17c0,.94-.09,1.85-.14,2.73a4.75,4.75,0,0,1-4.76,4.44H1312.79Q1314.38,254,1327,265t36.49,11a120,120,0,0,0,25.65-2.55q7.62-1.68,13.13-3.48a4.74,4.74,0,0,1,6.12,3.79l3.58,22.16a4.76,4.76,0,0,1-3,5.21q-2.27.87-5.18,1.79a124.6,124.6,0,0,1-12.75,3.19q-7.17,1.44-15.45,2.39a149.11,149.11,0,0,1-16.89.95q-22,0-38.24-6.53a71.11,71.11,0,0,1-26.77-18.16,74.35,74.35,0,0,1-15.61-27.41A111.79,111.79,0,0,1,1273,222.76Zm111.85-17.21a50.86,50.86,0,0,0-2.23-15.13,36.57,36.57,0,0,0-6.53-12.43,30.93,30.93,0,0,0-10.52-8.29,33.63,33.63,0,0,0-14.82-3A34.48,34.48,0,0,0,1335.1,170a35.63,35.63,0,0,0-11.32,8.76,40,40,0,0,0-7.16,12.43,67,67,0,0,0-3.51,14.34Z"/><path class="cls-1" d="M1443.91,222.12a102.32,102.32,0,0,1,5.73-34.57,82.24,82.24,0,0,1,16.42-27.89,75.21,75.21,0,0,1,26-18.48q15.29-6.69,34.41-6.69a117,117,0,0,1,40.62,7.06,4.76,4.76,0,0,1,2.91,5.69l-5.85,22.27a4.72,4.72,0,0,1-6.13,3.28,97.4,97.4,0,0,0-10.35-2.93,81.8,81.8,0,0,0-18-1.91q-22.64,0-34.41,14.18t-11.79,40q0,24.85,11.15,39.36t37.6,14.5a98.58,98.58,0,0,0,19.44-1.92,103.87,103.87,0,0,0,11.34-2.88,4.76,4.76,0,0,1,6.18,3.72l3.84,22.55a4.73,4.73,0,0,1-2.94,5.24,99.37,99.37,0,0,1-15.71,4.19,137.06,137.06,0,0,1-26.61,2.55q-21.36,0-37.13-6.53a70.4,70.4,0,0,1-26.13-18.16A75.18,75.18,0,0,1,1449,257,114.84,114.84,0,0,1,1443.91,222.12Z"/></g></g></svg>