<svg xmlns="http://www.w3.org/2000/svg" xmlns:xlink="http://www.w3.org/1999/xlink" width="1024" zoomAndPan="magnify" viewBox="0 0 768 383.999986" height="512" preserveAspectRatio="xMidYMid meet" version="1.0"><defs><g/><clipPath id="4aa59c104d"><path d="M 121 247 L 134 247 L 134 290.230469 L 121 290.230469 Z M 121 247 " clip-rule="nonzero"/></clipPath><clipPath id="923308d3cc"><path d="M 118 245 L 136 245 L 136 290.230469 L 118 290.230469 Z M 118 245 " clip-rule="nonzero"/></clipPath><clipPath id="d67596e2e7"><path d="M 91 93.730469 L 208 93.730469 L 208 180 L 91 180 Z M 91 93.730469 " clip-rule="nonzero"/></clipPath><clipPath id="1cab671ee0"><path d="M 89 93.730469 L 210 93.730469 L 210 182 L 89 182 Z M 89 93.730469 " clip-rule="nonzero"/></clipPath></defs><path stroke-linecap="butt" transform="matrix(0.383789, 0, 0, 0.383789, 28.993674, 93.731405)" fill-opacity="1" fill="#b0b0b0" fill-rule="nonzero" stroke-linejoin="miter" d="M 255.996149 127.997572 C 211.894364 127.997572 175.996142 163.895794 175.996142 207.997579 L 175.996142 463.997599 C 175.996142 472.842384 183.161537 479.997601 191.996143 479.997601 C 200.840928 479.997601 207.996145 472.842384 207.996145 463.997599 L 207.996145 207.997579 C 207.996145 181.534472 229.533042 159.997575 255.996149 159.997575 C 282.469433 159.997575 303.996153 181.534472 303.996153 207.997579 C 303.996153 216.832185 311.161548 223.99758 319.996154 223.99758 C 328.840938 223.99758 335.996155 216.832185 335.996155 207.997579 C 335.996155 163.895794 300.108112 127.997572 255.996149 127.997572 Z M 255.996149 127.997572 " stroke="#b0b0b0" stroke-width="1" stroke-opacity="1" stroke-miterlimit="4"/><path stroke-linecap="butt" transform="matrix(0.383789, 0, 0, 0.383789, 28.993674, 93.731405)" fill-opacity="1" fill="#b0b0b0" fill-rule="nonzero" stroke-linejoin="miter" d="M 255.996149 191.997577 C 247.161542 191.997577 239.996147 199.162972 239.996147 207.997579 L 239.996147 351.99759 C 239.996147 360.832197 247.161542 367.997592 255.996149 367.997592 C 264.840933 367.997592 271.99615 360.832197 271.99615 351.99759 L 271.99615 207.997579 C 271.99615 199.162972 264.840933 191.997577 255.996149 191.997577 Z M 255.996149 191.997577 " stroke="#b0b0b0" stroke-width="1" stroke-opacity="1" stroke-miterlimit="4"/><g clip-path="url(#4aa59c104d)"><path fill="#b0b0b0" d="M 127.242188 247.246094 C 123.851562 247.246094 121.101562 249.996094 121.101562 253.386719 L 121.101562 284.089844 C 121.101562 287.484375 123.851562 290.230469 127.242188 290.230469 C 130.636719 290.230469 133.382812 287.484375 133.382812 284.089844 L 133.382812 253.386719 C 133.382812 249.996094 130.636719 247.246094 127.242188 247.246094 Z M 127.242188 247.246094 " fill-opacity="1" fill-rule="nonzero"/></g><g clip-path="url(#923308d3cc)"><path stroke-linecap="butt" transform="matrix(0.383789, 0, 0, 0.383789, 28.993674, 93.731405)" fill="none" stroke-linejoin="miter" d="M 255.996149 399.997594 C 247.161542 399.997594 239.996147 407.162989 239.996147 415.997596 L 239.996147 495.997602 C 239.996147 504.842386 247.161542 511.997603 255.996149 511.997603 C 264.840933 511.997603 271.99615 504.842386 271.99615 495.997602 L 271.99615 415.997596 C 271.99615 407.162989 264.840933 399.997594 255.996149 399.997594 Z M 255.996149 399.997594 " stroke="#b0b0b0" stroke-width="1" stroke-opacity="1" stroke-miterlimit="4"/></g><path stroke-linecap="butt" transform="matrix(0.383789, 0, 0, 0.383789, 28.993674, 93.731405)" fill-opacity="1" fill="#b0b0b0" fill-rule="nonzero" stroke-linejoin="miter" d="M 319.996154 255.997582 C 311.161548 255.997582 303.996153 263.162977 303.996153 271.997584 L 303.996153 463.997599 C 303.996153 472.842384 311.161548 479.997601 319.996154 479.997601 C 328.840938 479.997601 335.996155 472.842384 335.996155 463.997599 L 335.996155 271.997584 C 335.996155 263.162977 328.840938 255.997582 319.996154 255.997582 Z M 319.996154 255.997582 " stroke="#b0b0b0" stroke-width="1" stroke-opacity="1" stroke-miterlimit="4"/><path stroke-linecap="butt" transform="matrix(0.383789, 0, 0, 0.383789, 28.993674, 93.731405)" fill-opacity="1" fill="#b0b0b0" fill-rule="nonzero" stroke-linejoin="miter" d="M 127.996138 287.997585 C 119.161532 287.997585 111.996137 295.16298 111.996137 303.997586 L 111.996137 415.997596 C 111.996137 424.84238 119.161532 431.997597 127.996138 431.997597 C 136.840923 431.997597 143.996139 424.84238 143.996139 415.997596 L 143.996139 303.997586 C 143.996139 295.16298 136.840923 287.997585 127.996138 287.997585 Z M 127.996138 287.997585 " stroke="#b0b0b0" stroke-width="1" stroke-opacity="1" stroke-miterlimit="4"/><path stroke-linecap="butt" transform="matrix(0.383789, 0, 0, 0.383789, 28.993674, 93.731405)" fill-opacity="1" fill="#b0b0b0" fill-rule="nonzero" stroke-linejoin="miter" d="M 447.996164 255.997582 C 439.161558 255.997582 431.996163 263.162977 431.996163 271.997584 L 431.996163 351.99759 C 431.996163 360.832197 439.161558 367.997592 447.996164 367.997592 C 456.840949 367.997592 463.996166 360.832197 463.996166 351.99759 L 463.996166 271.997584 C 463.996166 263.162977 456.840949 255.997582 447.996164 255.997582 Z M 447.996164 255.997582 " stroke="#b0b0b0" stroke-width="1" stroke-opacity="1" stroke-miterlimit="4"/><path stroke-linecap="butt" transform="matrix(0.383789, 0, 0, 0.383789, 28.993674, 93.731405)" fill-opacity="1" fill="#b0b0b0" fill-rule="nonzero" stroke-linejoin="miter" d="M 368.708626 145.198591 C 360.515241 148.526836 356.566131 157.839814 359.87402 166.043377 C 365.268422 179.356355 367.996158 193.473404 367.996158 207.997579 L 367.996158 415.997596 C 367.996158 424.84238 375.161553 431.997597 383.996159 431.997597 C 392.840943 431.997597 399.99616 424.84238 399.99616 415.997596 L 399.99616 207.997579 C 399.99616 189.341088 396.48471 171.183326 389.543233 154.043376 C 386.235345 145.849991 376.952901 141.900881 368.708626 145.198591 Z M 368.708626 145.198591 " stroke="#b0b0b0" stroke-width="1" stroke-opacity="1" stroke-miterlimit="4"/><path stroke-linecap="butt" transform="matrix(0.383789, 0, 0, 0.383789, 28.993674, 93.731405)" fill-opacity="1" fill="#b0b0b0" fill-rule="nonzero" stroke-linejoin="miter" d="M 255.996149 63.997567 C 176.606829 63.997567 111.996137 128.598081 111.996137 207.997579 L 111.996137 239.997581 C 111.996137 248.832187 119.161532 255.997582 127.996138 255.997582 C 136.840923 255.997582 143.996139 248.832187 143.996139 239.997581 L 143.996139 207.997579 C 143.996139 146.246937 194.245507 95.997569 255.996149 95.997569 C 281.787499 95.997569 306.01142 104.506476 326.052134 120.618437 C 332.973254 126.134976 343.019056 125.056096 348.555953 118.16551 C 354.082671 111.274924 352.983434 101.198588 346.103026 95.661692 C 320.678088 75.244387 288.678085 63.997567 255.996149 63.997567 Z M 255.996149 63.997567 " stroke="#b0b0b0" stroke-width="1" stroke-opacity="1" stroke-miterlimit="4"/><g clip-path="url(#d67596e2e7)"><path fill="#b0b0b0" d="M 100.203125 111.640625 C 108.746094 107.90625 117.84375 106.011719 127.242188 106.011719 C 164.488281 106.011719 194.789062 136.3125 194.789062 173.558594 C 194.789062 176.949219 197.539062 179.699219 200.929688 179.699219 C 204.324219 179.699219 207.070312 176.949219 207.070312 173.558594 C 207.070312 129.539062 171.261719 93.730469 127.242188 93.730469 C 116.140625 93.730469 105.390625 95.972656 95.285156 100.386719 C 92.175781 101.742188 90.757812 105.363281 92.117188 108.472656 C 93.480469 111.582031 97.105469 112.984375 100.203125 111.640625 Z M 100.203125 111.640625 " fill-opacity="1" fill-rule="nonzero"/></g><g clip-path="url(#1cab671ee0)"><path stroke-linecap="butt" transform="matrix(0.383789, 0, 0, 0.383789, 28.993674, 93.731405)" fill="none" stroke-linejoin="miter" d="M 185.543217 46.664232 C 207.80276 36.933951 231.507597 31.997564 255.996149 31.997564 C 353.044503 31.997564 431.996163 110.949225 431.996163 207.997579 C 431.996163 216.832185 439.161558 223.99758 447.996164 223.99758 C 456.840949 223.99758 463.996166 216.832185 463.996166 207.997579 C 463.996166 93.300368 370.693359 -0.0024384 255.996149 -0.0024384 C 227.069938 -0.0024384 199.059757 5.839801 172.728966 17.341074 C 164.627184 20.872881 160.932528 30.307997 164.474513 38.409778 C 168.026676 46.51156 177.471969 50.165505 185.543217 46.664232 Z M 185.543217 46.664232 " stroke="#b0b0b0" stroke-width="1" stroke-opacity="1" stroke-miterlimit="4"/></g><path stroke-linecap="butt" transform="matrix(0.383789, 0, 0, 0.383789, 28.993674, 93.731405)" fill-opacity="1" fill="#b0b0b0" fill-rule="nonzero" stroke-linejoin="miter" d="M 123.558479 68.078992 C 116.973237 62.175684 106.866365 62.745658 100.973235 69.330901 C 66.815472 107.488665 47.996132 156.730399 47.996132 207.997579 L 47.996132 351.99759 C 47.996132 360.832197 55.161527 367.997592 63.996133 367.997592 C 72.840917 367.997592 79.996134 360.832197 79.996134 351.99759 L 79.996134 207.997579 C 79.996134 164.628618 95.914711 122.949226 124.810387 90.674414 C 130.703518 84.089172 130.143721 73.972122 123.558479 68.078992 Z M 123.558479 68.078992 " stroke="#b0b0b0" stroke-width="1" stroke-opacity="1" stroke-miterlimit="4"/><g fill="#b0b0b0" fill-opacity="1"><g transform="translate(252.213422, 221.999982)"><g><path d="M 30 15 L 22.5 15 L 22.5 0 L 15 0 L 15 -22.5 L 7.5 -22.5 L 7.5 -45 L 0 -45 L 0 -90 L 15 -90 L 15 -45 L 22.5 -45 L 22.5 -15 L 37.5 -15 L 37.5 -45 L 45 -45 L 45 -90 L 60 -90 L 60 -45 L 52.5 -45 L 52.5 -22.5 L 45 -22.5 L 45 0 L 37.5 0 L 37.5 15 Z M 30 15 "/></g></g><g transform="translate(319.713416, 221.999982)"><g><path d="M 45 15 L 15 15 L 15 7.5 L 7.5 7.5 L 7.5 0 L 0 0 L 0 -37.5 L 7.5 -37.5 L 7.5 -45 L 15 -45 L 15 -52.5 L 45 -52.5 L 45 -45 L 52.5 -45 L 52.5 -37.5 L 60 -37.5 L 60 -15 L 15 -15 L 15 0 L 22.5 0 L 22.5 7.5 L 45 7.5 L 45 0 L 60 0 L 60 7.5 L 52.5 7.5 L 52.5 15 Z M 37.5 -22.5 L 45 -22.5 L 45 -37.5 L 37.5 -37.5 L 37.5 -45 L 22.5 -45 L 22.5 -37.5 L 15 -37.5 L 15 -22.5 Z M 37.5 -22.5 "/></g></g><g transform="translate(387.213411, 221.999982)"><g><path d="M 52.5 15 L 45 15 L 45 -37.5 L 37.5 -37.5 L 37.5 -45 L 22.5 -45 L 22.5 -37.5 L 15 -37.5 L 15 15 L 0 15 L 0 -52.5 L 15 -52.5 L 15 -45 L 22.5 -45 L 22.5 -52.5 L 45 -52.5 L 45 -45 L 52.5 -45 L 52.5 -37.5 L 60 -37.5 L 60 15 Z M 52.5 15 "/></g></g><g transform="translate(454.713406, 221.999982)"><g><path d="M 7.5 -37.5 L 7.5 -45 L 15 -45 L 15 -37.5 Z M 52.5 15 L 45 15 L 45 7.5 L 37.5 7.5 L 37.5 0 L 45 0 L 45 -22.5 L 15 -22.5 L 15 7.5 L 37.5 7.5 L 37.5 15 L 7.5 15 L 7.5 7.5 L 0 7.5 L 0 -22.5 L 7.5 -22.5 L 7.5 -30 L 45 -30 L 45 -45 L 15 -45 L 15 -52.5 L 52.5 -52.5 L 52.5 -45 L 60 -45 L 60 15 Z M 52.5 15 "/></g></g><g transform="translate(522.2134, 221.999982)"><g><path d="M 45 15 L 15 15 L 15 7.5 L 7.5 7.5 L 7.5 0 L 0 0 L 0 -37.5 L 7.5 -37.5 L 7.5 -45 L 15 -45 L 15 -52.5 L 52.5 -52.5 L 52.5 -45 L 60 -45 L 60 -37.5 L 45 -37.5 L 45 -45 L 22.5 -45 L 22.5 -37.5 L 15 -37.5 L 15 0 L 22.5 0 L 22.5 7.5 L 45 7.5 L 45 0 L 60 0 L 60 7.5 L 52.5 7.5 L 52.5 15 Z M 45 15 "/></g></g><g transform="translate(589.713395, 221.999982)"><g><path d="M 52.5 15 L 45 15 L 45 7.5 L 37.5 7.5 L 37.5 15 L 7.5 15 L 7.5 7.5 L 0 7.5 L 0 -52.5 L 15 -52.5 L 15 7.5 L 37.5 7.5 L 37.5 0 L 45 0 L 45 -52.5 L 60 -52.5 L 60 15 Z M 52.5 15 "/></g></g><g transform="translate(657.21339, 221.999982)"><g><path d="M 45 15 L 7.5 15 L 7.5 7.5 L 0 7.5 L 0 0 L 15 0 L 15 7.5 L 45 7.5 L 45 -7.5 L 30 -7.5 L 30 -15 L 22.5 -15 L 22.5 -22.5 L 7.5 -22.5 L 7.5 -30 L 0 -30 L 0 -45 L 7.5 -45 L 7.5 -52.5 L 52.5 -52.5 L 52.5 -45 L 60 -45 L 60 -37.5 L 45 -37.5 L 45 -45 L 15 -45 L 15 -30 L 30 -30 L 30 -22.5 L 37.5 -22.5 L 37.5 -15 L 52.5 -15 L 52.5 -7.5 L 60 -7.5 L 60 7.5 L 52.5 7.5 L 52.5 15 Z M 45 15 "/></g></g></g></svg>